<?xml version="1.0" encoding="UTF-8" standalone="no"?>
<!DOCTYPE svg PUBLIC "-//W3C//DTD SVG 1.1//EN" "http://www.w3.org/Graphics/SVG/1.1/DTD/svg11.dtd">
<!-- Generated by Microsoft Visio, SVG Export State Machine.svg Page-1 -->
<svg xmlns="http://www.w3.org/2000/svg" xmlns:xlink="http://www.w3.org/1999/xlink" xmlns:ev="http://www.w3.org/2001/xml-events"
		xmlns:v="http://schemas.microsoft.com/visio/2003/SVGExtensions/" width="7.82805in" height="8.09884in"
		viewBox="0 0 563.62 583.117" xml:space="preserve" color-interpolation-filters="sRGB" class="st30">
	<v:documentProperties v:langID="1033" v:viewMarkup="false">
		<v:userDefs>
			<v:ud v:nameU="msvNoAutoConnect" v:prompt="" v:val="VT0(0):26"/>
		</v:userDefs>
	</v:documentProperties>

	<style type="text/css">
	<![CDATA[
		.st1 {fill:#dae1ed;stroke:#ffffff;stroke-linecap:round;stroke-linejoin:round;stroke-width:0.5}
		.st2 {fill:#dae1ed;stroke:#dae1ed;stroke-linecap:round;stroke-linejoin:round;stroke-width:0.5}
		.st3 {fill:#2175b9;font-family:Calibri;font-size:1.00001em;font-weight:bold}
		.st4 {fill:#ffffff;stroke:#dae1ed;stroke-linecap:round;stroke-linejoin:round;stroke-width:0.5}
		.st5 {fill:#2277bb;font-family:Calibri;font-size:1.00001em}
		.st6 {marker-end:url(#mrkr5-18);marker-start:url(#mrkr20-16);stroke:#1f70b0;stroke-linecap:round;stroke-linejoin:round;stroke-width:2}
		.st7 {fill:#1f70b0;fill-opacity:1;stroke:#1f70b0;stroke-opacity:1;stroke-width:0.44247787610619}
		.st8 {fill:#1f70b0;fill-opacity:1;stroke:#1f70b0;stroke-opacity:1;stroke-width:0.33557046979866}
		.st9 {fill:#daede1;stroke:#ffffff;stroke-linecap:round;stroke-linejoin:round;stroke-width:0.5}
		.st10 {fill:#daede1;stroke:#daede1;stroke-linecap:round;stroke-linejoin:round;stroke-width:0.5}
		.st11 {fill:#21b975;font-family:Calibri;font-size:1.00001em;font-weight:bold}
		.st12 {fill:#ffffff;stroke:#daede1;stroke-linecap:round;stroke-linejoin:round;stroke-width:0.5}
		.st13 {fill:#22bb77;font-family:Calibri;font-size:1.00001em}
		.st14 {fill:#eddae1;stroke:#ffffff;stroke-linecap:round;stroke-linejoin:round;stroke-width:0.5}
		.st15 {fill:#eddae1;stroke:#eddae1;stroke-linecap:round;stroke-linejoin:round;stroke-width:0.5}
		.st16 {fill:#b92175;font-family:Calibri;font-size:1.00001em;font-weight:bold}
		.st17 {fill:#ffffff;stroke:#eddae1;stroke-linecap:round;stroke-linejoin:round;stroke-width:0.5}
		.st18 {fill:#bb2277;font-family:Calibri;font-size:1.00001em}
		.st19 {font-size:1em}
		.st20 {fill:#d9d9d9;stroke:#ffffff;stroke-linecap:round;stroke-linejoin:round;stroke-width:0.5}
		.st21 {fill:#d9d9d9;stroke:#d9d9d9;stroke-linecap:round;stroke-linejoin:round;stroke-width:0.5}
		.st22 {fill:#000000;font-family:Calibri;font-size:1.00001em;font-weight:bold}
		.st23 {fill:#ffffff;stroke:#d9d9d9;stroke-linecap:round;stroke-linejoin:round;stroke-width:0.5}
		.st24 {fill:#000000;font-family:Calibri;font-size:1.00001em}
		.st25 {fill:#2277bb;stroke:#ffffff;stroke-linecap:round;stroke-linejoin:round;stroke-width:0.5}
		.st26 {fill:#f6e4ce}
		.st27 {stroke:#bb7722;stroke-linecap:round;stroke-linejoin:round;stroke-width:0.5}
		.st28 {fill:#3f3f3f;font-family:Calibri;font-size:1.00001em}
		.st29 {fill:#ffffff;stroke:#bb7722;stroke-linecap:round;stroke-linejoin:round;stroke-width:0.5}
		.st30 {fill:none;fill-rule:evenodd;font-size:12px;overflow:visible;stroke-linecap:square;stroke-miterlimit:3}
	]]>
	</style>

	<defs id="Markers">
		<g id="lend20">
			<path
					d="M 0 0.75 C -0.414214 0.75 -0.75 0.414214 -0.75 0 -0.75 -0.414214 -0.414214 -0.75 0 -0.75 0.414214 -0.75 0.75 -0.414214 0.75 0 0.75 0.414214 0.414214 0.75 0 0.75 Z "
					style="stroke-linecap:round;stroke-linejoin:round;fill:none"/>
		</g>
		<marker id="mrkr20-16" class="st7" v:arrowType="20" v:arrowSize="2" v:setback="1.515" refX="1.515" orient="auto"
				markerUnits="strokeWidth" overflow="visible">
			<use xlink:href="#lend20" transform="scale(2.26) "/>
		</marker>
		<g id="lend5">
			<path d="M 2 1 L 0 0 L 1.98117 -0.993387 C 1.67173 -0.364515 1.67301 0.372641 1.98465 1.00043 " style="stroke:none"/>
		</g>
		<marker id="mrkr5-18" class="st8" v:arrowType="5" v:arrowSize="4" v:setback="5.215" refX="-5.215" orient="auto"
				markerUnits="strokeWidth" overflow="visible">
			<use xlink:href="#lend5" transform="scale(-2.98,-2.98) "/>
		</marker>
	</defs>
	<g v:mID="0" v:index="1" v:groupContext="foregroundPage">
		<v:userDefs>
			<v:ud v:nameU="msvThemeOrder" v:val="VT0(0):26"/>
		</v:userDefs>
		<title>Page-1</title>
		<v:pageProperties v:drawingScale="1" v:pageScale="1" v:drawingUnits="0" v:shadowOffsetX="9" v:shadowOffsetY="-9"/>
		<v:layer v:name="Connector" v:index="0"/>
		<v:layer v:name="Container" v:index="1"/>
		<g id="group15-1" transform="translate(187.335,-384.809)" v:mID="15" v:groupContext="group">
			<v:userDefs>
				<v:ud v:nameU="visVersion" v:prompt="" v:val="VT0(15):26"/>
			</v:userDefs>
			<title>State</title>
			<g id="shape15-2" v:mID="15" v:groupContext="groupContent">
				<rect x="0" y="538.309" width="97.6586" height="44.8074" rx="9" ry="9" class="st1"/>
			</g>
			<g id="shape16-4" v:mID="16" v:groupContext="shape" transform="translate(0,-22.4037)">
				<title>Sheet.16</title>
				<desc>Evaluating</desc>
				<v:userDefs>
					<v:ud v:nameU="UmlRole" v:prompt="" v:val="VT4(Title)"/>
				</v:userDefs>
				<v:textBlock v:margins="rect(4,4,4,4)"/>
				<v:textRect cx="48.8293" cy="571.915" width="97.66" height="22.4037"/>
				<path d="M9 583.12 L88.66 583.12 A9 9 -180 0 0 97.66 574.12 L97.66 569.71 A9 9 -180 0 0 88.66 560.71 L9 560.71 A9
							 9 -180 0 0 0 569.71 L0 574.12 A9 9 -180 0 0 9 583.12 Z" class="st2"/>
				<text x="22.83" y="575.52" class="st3" v:langID="1033"><v:paragraph v:horizAlign="1"/><v:tabList/>Evaluating</text>			</g>
			<g id="shape17-7" v:mID="17" v:groupContext="shape">
				<title>Sheet.17</title>
				<desc>Transfer detected</desc>
				<v:userDefs>
					<v:ud v:nameU="UmlRole" v:prompt="" v:val="VT4(Body)"/>
				</v:userDefs>
				<v:textBlock v:margins="rect(4,4,4,4)"/>
				<v:textRect cx="48.8293" cy="571.915" width="97.66" height="22.4037"/>
				<path d="M9 583.12 L88.66 583.12 A9 9 -180 0 0 97.66 574.12 L97.66 569.71 A9 9 -180 0 0 88.66 560.71 L9 560.71 A9
							 9 -180 0 0 0 569.71 L0 574.12 A9 9 -180 0 0 9 583.12 Z" class="st4"/>
				<text x="4" y="575.52" class="st5" v:langID="1033"><v:paragraph/><v:tabList/>Transfer detected</text>			</g>
		</g>
		<g id="shape20-10" v:mID="20" v:groupContext="shape" v:layerMember="0" transform="translate(227.164,-384.809)">
			<title>Dynamic connector.20</title>
			<path d="M9 586.15 L9 586.51 L9 644.68" class="st6"/>
		</g>
		<g id="shape24-19" v:mID="24" v:groupContext="shape" v:layerMember="0" transform="translate(254.164,-285.811)">
			<title>Dynamic connector.24</title>
			<path d="M3.03 574.12 L3.39 574.12 L33.59 574.12" class="st6"/>
		</g>
		<g id="group21-26" transform="translate(298.183,-272.407)" v:mID="21" v:groupContext="group">
			<v:userDefs>
				<v:ud v:nameU="visVersion" v:prompt="" v:val="VT0(15):26"/>
			</v:userDefs>
			<title>State.21</title>
			<g id="shape21-27" v:mID="21" v:groupContext="groupContent">
				<rect x="0" y="538.309" width="127.964" height="44.8074" rx="9" ry="9" class="st9"/>
			</g>
			<g id="shape22-29" v:mID="22" v:groupContext="shape" transform="translate(0,-22.4037)">
				<title>Sheet.22</title>
				<desc>Evaluated Acceptable</desc>
				<v:userDefs>
					<v:ud v:nameU="UmlRole" v:prompt="" v:val="VT4(Title)"/>
				</v:userDefs>
				<v:textBlock v:margins="rect(4,4,4,4)"/>
				<v:textRect cx="63.9818" cy="571.915" width="127.97" height="22.4037"/>
				<path d="M9 583.12 L118.96 583.12 A9 9 -180 0 0 127.96 574.12 L127.96 569.71 A9 9 -180 0 0 118.96 560.71 L9 560.71
							 A9 9 -180 0 0 0 569.71 L0 574.12 A9 9 -180 0 0 9 583.12 Z" class="st10"/>
				<text x="10.27" y="575.52" class="st11" v:langID="1033"><v:paragraph v:horizAlign="1"/><v:tabList/>Evaluated Acceptable</text>			</g>
			<g id="shape23-32" v:mID="23" v:groupContext="shape">
				<title>Sheet.23</title>
				<desc>The object is acceptable</desc>
				<v:userDefs>
					<v:ud v:nameU="UmlRole" v:prompt="" v:val="VT4(Body)"/>
				</v:userDefs>
				<v:textBlock v:margins="rect(4,4,4,4)"/>
				<v:textRect cx="63.9818" cy="571.915" width="127.97" height="22.4037"/>
				<path d="M9 583.12 L118.96 583.12 A9 9 -180 0 0 127.96 574.12 L127.96 569.71 A9 9 -180 0 0 118.96 560.71 L9 560.71
							 A9 9 -180 0 0 0 569.71 L0 574.12 A9 9 -180 0 0 9 583.12 Z" class="st12"/>
				<text x="4" y="575.52" class="st13" v:langID="1033"><v:paragraph/><v:tabList/>The object is acceptable</text>			</g>
		</g>
		<g id="shape30-35" v:mID="30" v:groupContext="shape" v:layerMember="0" transform="translate(218.164,-285.811)">
			<title>Dynamic connector.30</title>
			<path d="M-3.03 574.12 L-3.39 574.12 L-23.91 574.12" class="st6"/>
		</g>
		<g id="group27-42" transform="translate(36.5,-272.407)" v:mID="27" v:groupContext="group">
			<v:userDefs>
				<v:ud v:nameU="visVersion" v:prompt="" v:val="VT0(15):26"/>
			</v:userDefs>
			<title>State.27</title>
			<g id="shape27-43" v:mID="27" v:groupContext="groupContent">
				<rect x="0" y="538.309" width="147.329" height="44.8074" rx="9" ry="9" class="st14"/>
			</g>
			<g id="shape28-45" v:mID="28" v:groupContext="shape" transform="translate(0,-22.4037)">
				<title>Sheet.28</title>
				<desc>Evaluated Unacceptable</desc>
				<v:userDefs>
					<v:ud v:nameU="UmlRole" v:prompt="" v:val="VT4(Title)"/>
				</v:userDefs>
				<v:textBlock v:margins="rect(4,4,4,4)"/>
				<v:textRect cx="73.6645" cy="571.915" width="147.33" height="22.4037"/>
				<path d="M9 583.12 L138.33 583.12 A9 9 -180 0 0 147.33 574.12 L147.33 569.71 A9 9 -180 0 0 138.33 560.71 L9 560.71
							 A9 9 -180 0 0 0 569.71 L0 574.12 A9 9 -180 0 0 9 583.12 Z" class="st15"/>
				<text x="13.49" y="575.52" class="st16" v:langID="1033"><v:paragraph v:horizAlign="1"/><v:tabList/>Evaluated Unacceptable</text>			</g>
			<g id="shape29-48" v:mID="29" v:groupContext="shape">
				<title>Sheet.29</title>
				<desc>The object is not acceptable</desc>
				<v:userDefs>
					<v:ud v:nameU="UmlRole" v:prompt="" v:val="VT4(Body)"/>
				</v:userDefs>
				<v:textBlock v:margins="rect(4,4,4,4)"/>
				<v:textRect cx="73.6645" cy="571.915" width="147.33" height="22.4037"/>
				<path d="M9 583.12 L138.33 583.12 A9 9 -180 0 0 147.33 574.12 L147.33 569.71 A9 9 -180 0 0 138.33 560.71 L9 560.71
							 A9 9 -180 0 0 0 569.71 L0 574.12 A9 9 -180 0 0 9 583.12 Z" class="st17"/>
				<text x="4" y="575.52" class="st18" v:langID="1033"><v:paragraph/><v:tabList/>The object is not acceptable</text>			</g>
		</g>
		<g id="shape35-51" v:mID="35" v:groupContext="shape" v:layerMember="0" transform="translate(353.164,-272.407)">
			<title>Dynamic connector.35</title>
			<path d="M9 586.15 L9 586.51 L9 637.48" class="st6"/>
		</g>
		<g id="group32-58" transform="translate(316.438,-148.404)" v:mID="32" v:groupContext="group">
			<v:userDefs>
				<v:ud v:nameU="visVersion" v:prompt="" v:val="VT0(15):26"/>
			</v:userDefs>
			<title>State.32</title>
			<g id="shape32-59" v:mID="32" v:groupContext="groupContent">
				<rect x="0" y="523.909" width="91.4533" height="59.2075" rx="9" ry="9" class="st1"/>
			</g>
			<g id="shape33-61" v:mID="33" v:groupContext="shape" transform="translate(0,-36.8038)">
				<title>Sheet.33</title>
				<desc>Loading</desc>
				<v:userDefs>
					<v:ud v:nameU="UmlRole" v:prompt="" v:val="VT4(Title)"/>
				</v:userDefs>
				<v:textBlock v:margins="rect(4,4,4,4)"/>
				<v:textRect cx="45.7266" cy="571.915" width="91.46" height="22.4037"/>
				<path d="M9 583.12 L82.45 583.12 A9 9 -180 0 0 91.45 574.12 L91.45 569.71 A9 9 -180 0 0 82.45 560.71 L9 560.71 A9
							 9 -180 0 0 0 569.71 L0 574.12 A9 9 -180 0 0 9 583.12 Z" class="st2"/>
				<text x="26.24" y="575.52" class="st3" v:langID="1033"><v:paragraph v:horizAlign="1"/><v:tabList/>Loading</text>			</g>
			<g id="shape34-64" v:mID="34" v:groupContext="shape">
				<title>Sheet.34</title>
				<desc>The object is being transfered</desc>
				<v:userDefs>
					<v:ud v:nameU="UmlRole" v:prompt="" v:val="VT4(Body)"/>
				</v:userDefs>
				<v:textBlock v:margins="rect(4,4,4,4)"/>
				<v:textRect cx="45.7266" cy="564.715" width="91.46" height="36.8038"/>
				<path d="M9 583.12 L82.45 583.12 A9 9 -180 0 0 91.45 574.12 L91.45 555.31 A9 9 -180 0 0 82.45 546.31 L9 546.31 A9
							 9 -180 0 0 0 555.31 L0 574.12 A9 9 -180 0 0 9 583.12 Z" class="st4"/>
				<text x="4" y="561.12" class="st5" v:langID="1033"><v:paragraph/><v:tabList/>The object is<v:lf/><tspan x="4"
							dy="1.2em" class="st19">being transfered</tspan></text>			</g>
		</g>
		<g id="shape39-68" v:mID="39" v:groupContext="shape" v:layerMember="0" transform="translate(380.164,-49.4037)">
			<title>Dynamic connector.39</title>
			<path d="M3.03 574.12 L3.39 574.12 L61.57 574.12" class="st6"/>
		</g>
		<g id="group36-75" transform="translate(452.164,-28.7999)" v:mID="36" v:groupContext="group">
			<v:userDefs>
				<v:ud v:nameU="visVersion" v:prompt="" v:val="VT0(15):26"/>
			</v:userDefs>
			<title>State.36</title>
			<g id="shape36-76" v:mID="36" v:groupContext="groupContent">
				<rect x="0" y="523.909" width="93.2053" height="59.2075" rx="9" ry="9" class="st20"/>
			</g>
			<g id="shape37-78" v:mID="37" v:groupContext="shape" transform="translate(0,-36.8038)">
				<title>Sheet.37</title>
				<desc>Loaded</desc>
				<v:userDefs>
					<v:ud v:nameU="UmlRole" v:prompt="" v:val="VT4(Title)"/>
				</v:userDefs>
				<v:textBlock v:margins="rect(4,4,4,4)"/>
				<v:textRect cx="46.6027" cy="571.915" width="93.21" height="22.4037"/>
				<path d="M9 583.12 L84.21 583.12 A9 9 -180 0 0 93.21 574.12 L93.21 569.71 A9 9 -180 0 0 84.21 560.71 L9 560.71 A9
							 9 -180 0 0 0 569.71 L0 574.12 A9 9 -180 0 0 9 583.12 Z" class="st21"/>
				<text x="28.42" y="575.52" class="st22" v:langID="1033"><v:paragraph v:horizAlign="1"/><v:tabList/>Loaded</text>			</g>
			<g id="shape38-81" v:mID="38" v:groupContext="shape">
				<title>Sheet.38</title>
				<desc>The object has been transferred</desc>
				<v:userDefs>
					<v:ud v:nameU="UmlRole" v:prompt="" v:val="VT4(Body)"/>
				</v:userDefs>
				<v:textBlock v:margins="rect(4,4,4,4)"/>
				<v:textRect cx="46.6027" cy="564.715" width="93.21" height="36.8038"/>
				<path d="M9 583.12 L84.21 583.12 A9 9 -180 0 0 93.21 574.12 L93.21 555.31 A9 9 -180 0 0 84.21 546.31 L9 546.31 A9
							 9 -180 0 0 0 555.31 L0 574.12 A9 9 -180 0 0 9 583.12 Z" class="st23"/>
				<text x="4" y="561.12" class="st24" v:langID="1033"><v:paragraph/><v:tabList/>The object has<v:newlineChar/><tspan
							x="4" dy="1.2em" class="st19">been transferred</tspan></text>			</g>
		</g>
		<g id="shape40-85" v:mID="40" v:groupContext="shape" v:layerMember="0" transform="translate(110.164,-317.215)">
			<title>Dynamic connector.40</title>
			<path d="M0 580.09 L0 579.73 L0 389.62 A31.5 31.5 0 0 1 31.5 358.12 L79.57 358.12" class="st6"/>
		</g>
		<g id="shape41-92" v:mID="41" v:groupContext="shape" v:layerMember="0" transform="translate(362.164,-317.215)">
			<title>Dynamic connector.41</title>
			<path d="M0 580.09 L0 579.73 L0 389.62 A31.5 31.5 -180 0 0 -31.5 358.12 L-79.57 358.12" class="st6"/>
		</g>
		<g id="shape42-99" v:mID="42" v:groupContext="shape" v:layerMember="0" transform="translate(498.767,-88.0075)">
			<title>Dynamic connector.42</title>
			<path d="M0 580.09 L0 579.73 L0 160.41 A31.5 31.5 -180 0 0 -31.5 128.91 L-216.17 128.91" class="st6"/>
		</g>
		<g id="shape43-106" v:mID="43" v:groupContext="shape" v:layerMember="0" transform="translate(344.164,-58.4037)">
			<title>Dynamic connector.43</title>
			<path d="M-3.03 583.12 L-3.39 583.12 L-202.5 583.12 A31.5 31.5 0 0 1 -234 551.62 L-234 379.54" class="st6"/>
		</g>
		<g id="group44-113" transform="translate(200.164,-519.809)" v:mID="44" v:groupContext="group">
			<v:userDefs>
				<v:ud v:nameU="visVersion" v:prompt="" v:val="VT0(15):26"/>
			</v:userDefs>
			<title>State.44</title>
			<g id="shape44-114" v:mID="44" v:groupContext="groupContent">
				<rect x="0" y="538.309" width="72" height="44.8074" rx="9" ry="9" class="st20"/>
			</g>
			<g id="shape45-116" v:mID="45" v:groupContext="shape" transform="translate(0,-22.4037)">
				<title>Sheet.45</title>
				<desc>Waiting</desc>
				<v:userDefs>
					<v:ud v:nameU="UmlRole" v:prompt="" v:val="VT4(Title)"/>
				</v:userDefs>
				<v:textBlock v:margins="rect(4,4,4,4)"/>
				<v:textRect cx="36" cy="571.915" width="72" height="22.4037"/>
				<path d="M9 583.12 L63 583.12 A9 9 -180 0 0 72 574.12 L72 569.71 A9 9 -180 0 0 63 560.71 L9 560.71 A9 9 -180 0 0
							 0 569.71 L0 574.12 A9 9 -180 0 0 9 583.12 Z" class="st21"/>
				<text x="16.51" y="575.52" class="st22" v:langID="1033"><v:paragraph v:horizAlign="1"/><v:tabList/>Waiting</text>			</g>
			<g id="shape46-119" v:mID="46" v:groupContext="shape">
				<title>Sheet.46</title>
				<desc>initial state</desc>
				<v:userDefs>
					<v:ud v:nameU="UmlRole" v:prompt="" v:val="VT4(Body)"/>
				</v:userDefs>
				<v:textBlock v:margins="rect(4,4,4,4)"/>
				<v:textRect cx="36" cy="571.915" width="72" height="22.4037"/>
				<path d="M9 583.12 L63 583.12 A9 9 -180 0 0 72 574.12 L72 569.71 A9 9 -180 0 0 63 560.71 L9 560.71 A9 9 -180 0 0
							 0 569.71 L0 574.12 A9 9 -180 0 0 9 583.12 Z" class="st23"/>
				<text x="8.87" y="575.52" class="st24" v:langID="1033"><v:paragraph v:horizAlign="1"/><v:tabList/>initial state</text>			</g>
		</g>
		<g id="shape49-122" v:mID="49" v:groupContext="shape" v:layerMember="0" transform="translate(227.164,-519.809)">
			<title>Dynamic connector</title>
			<path d="M9 586.15 L9 586.51 L9 662.88" class="st6"/>
		</g>
		<g id="shape51-129" v:mID="51" v:groupContext="shape" v:layerMember="0" transform="translate(353.164,-148.404)">
			<title>Dynamic connector.51</title>
			<path d="M9 586.15 L9 586.51 L9 644.69" class="st6"/>
		</g>
		<g id="shape50-136" v:mID="50" v:groupContext="shape" transform="translate(344.164,-40.4037)">
			<title>Choice.50</title>
			<desc>Re-evaluate acceptability</desc>
			<v:userDefs>
				<v:ud v:nameU="visVersion" v:prompt="" v:val="VT0(15):26"/>
			</v:userDefs>
			<v:textBlock v:margins="rect(4,4,4,4)"/>
			<v:textRect cx="18" cy="594.319" width="133.49" height="22.4037"/>
			<path d="M18 583.12 L36 565.12 L18 547.12 L0 565.12 L18 583.12 Z" class="st25"/>
			<text x="-43.38" y="597.92" class="st5" v:langID="1033"><v:paragraph v:horizAlign="1"/><v:tabList/>Re-evaluate acceptability</text>		</g>
		<g id="shape19-139" v:mID="19" v:groupContext="shape" transform="translate(218.164,-276.811)">
			<title>Choice</title>
			<desc>Evaluate acceptability</desc>
			<v:userDefs>
				<v:ud v:nameU="visVersion" v:prompt="" v:val="VT0(15):26"/>
			</v:userDefs>
			<v:textBlock v:margins="rect(4,4,4,4)"/>
			<v:textRect cx="18" cy="594.319" width="117.22" height="22.4037"/>
			<path d="M18 583.12 L36 565.12 L18 547.12 L0 565.12 L18 583.12 Z" class="st25"/>
			<text x="-35.25" y="597.92" class="st5" v:langID="1033"><v:paragraph v:horizAlign="1"/><v:tabList/>Evaluate acceptability</text>		</g>
		<g id="group71-142" transform="translate(18.25,-470.367)" v:mID="71" v:groupContext="group">
			<v:userDefs>
				<v:ud v:nameU="visVersion" v:prompt="" v:val="VT0(15):26"/>
				<v:ud v:nameU="msvStructureType" v:prompt="" v:val="VT4(Callout)"/>
				<v:ud v:nameU="msvSDTargetIntersection" v:prompt=""/>
				<v:ud v:nameU="msvSDCalloutNoHighlight" v:prompt="" v:val="VT0(0):5"/>
				<v:ud v:nameU="msvShapeCategories" v:prompt="" v:val="VT0(0):26"/>
				<v:ud v:nameU="Side" v:prompt="" v:val="VT0(4):26"/>
				<v:ud v:nameU="LeaderEnd" v:prompt="" v:val="VT7(PNT(0.25,-0.25)):40"/>
				<v:ud v:nameU="WHBoxIntersection" v:prompt="" v:val="VT7(PNT(0.40384615384615,0)):40"/>
				<v:ud v:nameU="FoldSize" v:prompt="" v:val="VT0(0.125):0"/>
				<v:ud v:nameU="LeaderEnd" v:prompt="" v:val="VT7(PNT(1.0004340277778,0.0022847045262653)):40"/>
				<v:ud v:nameU="WHBoxIntersection" v:prompt="" v:val="VT7(PNT(1,0)):40"/>
			</v:userDefs>
			<title>Note</title>
			<desc>Colors correspond to general colors of interface at state</desc>
			<g id="shape71-143" v:mID="71" v:groupContext="groupContent">
				<v:textBlock v:margins="rect(4,4,4,4)"/>
				<v:textRect cx="36" cy="535.867" width="72" height="94.4043"/>
				<path d="M0 583.12 L72 583.12 L72 497.62 L63 488.62 L0 488.62 L0 583.12 Z" class="st26"/>
				<path d="M72 583.12 L72.03 582.95" class="st27"/>
				<path d="M0 583.12 L72 583.12 L72 497.62 L63 488.62 L0 488.62 L0 583.12" class="st27"/>
				<text x="20.66" y="503.47" class="st28" v:langID="1033"><v:paragraph v:horizAlign="1"/><v:tabList/>Colors <tspan
							x="8.16" dy="1.2em" class="st19">correspond </tspan><tspan x="11.18" dy="1.2em" class="st19">to general </tspan><tspan
							x="14.97" dy="1.2em" class="st19">colors of </tspan><tspan x="7.92" dy="1.2em" class="st19">interface at </tspan><tspan
							x="23.77" dy="1.2em" class="st19">state</tspan></text>			</g>
			<g id="shape72-153" v:mID="72" v:groupContext="shape" transform="translate(63,-85.5)">
				<title>Sheet.72</title>
				<v:userDefs>
					<v:ud v:nameU="FoldSize" v:prompt="" v:val="VT0(0.125):0"/>
				</v:userDefs>
				<path d="M0 583.12 L9 583.12 L9 584.02 L9 583.12 L0 574.12 L-0.9 574.12 L0 574.12 L0 583.12 Z" class="st29"/>
			</g>
		</g>
	</g>
</svg>
